<mxfile host="app.diagrams.net" agent="Mozilla/5.0 (Windows NT 10.0; Win64; x64) AppleWebKit/537.36 (KHTML, like Gecko) Chrome/136.0.0.0 Safari/537.36 Edg/136.0.0.0" version="26.2.15">
  <diagram name="Page-1" id="w17ueu8RWQVc6aTVwVJQ">
    <mxGraphModel dx="1613" dy="689" grid="1" gridSize="10" guides="1" tooltips="1" connect="1" arrows="1" fold="1" page="1" pageScale="1" pageWidth="850" pageHeight="1100" math="0" shadow="0">
      <root>
        <mxCell id="0" />
        <mxCell id="1" parent="0" />
        <mxCell id="O0TlHCrz4PLuIZplfGmi-1" value="" style="rounded=0;whiteSpace=wrap;html=1;" parent="1" vertex="1">
          <mxGeometry x="80" y="130" width="700" height="750" as="geometry" />
        </mxCell>
        <mxCell id="D7wewuM9OKVRlQUEqqq4-2" value="" style="group" vertex="1" connectable="0" parent="1">
          <mxGeometry x="75" y="1140" width="700" height="890" as="geometry" />
        </mxCell>
        <mxCell id="D7wewuM9OKVRlQUEqqq4-3" value="" style="rounded=0;whiteSpace=wrap;html=1;" vertex="1" parent="D7wewuM9OKVRlQUEqqq4-2">
          <mxGeometry width="700" height="890" as="geometry" />
        </mxCell>
        <mxCell id="D7wewuM9OKVRlQUEqqq4-4" value="" style="rounded=0;whiteSpace=wrap;html=1;" vertex="1" parent="D7wewuM9OKVRlQUEqqq4-2">
          <mxGeometry width="700" height="140" as="geometry" />
        </mxCell>
        <mxCell id="D7wewuM9OKVRlQUEqqq4-5" value="" style="group" vertex="1" connectable="0" parent="1">
          <mxGeometry x="120" y="330" width="620" height="130" as="geometry" />
        </mxCell>
        <mxCell id="O0TlHCrz4PLuIZplfGmi-3" value="" style="rounded=0;whiteSpace=wrap;html=1;" parent="D7wewuM9OKVRlQUEqqq4-5" vertex="1">
          <mxGeometry width="620" height="130" as="geometry" />
        </mxCell>
        <mxCell id="O0TlHCrz4PLuIZplfGmi-7" value="&lt;font style=&quot;font-size: 24px;&quot;&gt;Daily Exercise&lt;/font&gt;" style="rounded=0;whiteSpace=wrap;html=1;" parent="D7wewuM9OKVRlQUEqqq4-5" vertex="1">
          <mxGeometry x="20" y="27.5" width="200" height="75" as="geometry" />
        </mxCell>
        <mxCell id="D7wewuM9OKVRlQUEqqq4-12" value="IMAGE" style="rounded=0;whiteSpace=wrap;html=1;" vertex="1" parent="D7wewuM9OKVRlQUEqqq4-5">
          <mxGeometry x="280" y="20" width="320" height="90" as="geometry" />
        </mxCell>
        <mxCell id="D7wewuM9OKVRlQUEqqq4-6" value="" style="group" vertex="1" connectable="0" parent="1">
          <mxGeometry x="120" y="490" width="620" height="130" as="geometry" />
        </mxCell>
        <mxCell id="O0TlHCrz4PLuIZplfGmi-4" value="" style="rounded=0;whiteSpace=wrap;html=1;" parent="D7wewuM9OKVRlQUEqqq4-6" vertex="1">
          <mxGeometry width="620" height="130" as="geometry" />
        </mxCell>
        <mxCell id="O0TlHCrz4PLuIZplfGmi-8" value="&lt;span style=&quot;font-size: 24px;&quot;&gt;Chord Practice&lt;/span&gt;" style="rounded=0;whiteSpace=wrap;html=1;" parent="D7wewuM9OKVRlQUEqqq4-6" vertex="1">
          <mxGeometry x="20" y="23" width="200" height="75" as="geometry" />
        </mxCell>
        <mxCell id="D7wewuM9OKVRlQUEqqq4-13" value="IMAGE" style="rounded=0;whiteSpace=wrap;html=1;" vertex="1" parent="D7wewuM9OKVRlQUEqqq4-6">
          <mxGeometry x="280" y="20" width="320" height="90" as="geometry" />
        </mxCell>
        <mxCell id="O0TlHCrz4PLuIZplfGmi-2" value="" style="rounded=0;whiteSpace=wrap;html=1;" parent="1" vertex="1">
          <mxGeometry x="80" y="130" width="700" height="140" as="geometry" />
        </mxCell>
        <mxCell id="D7wewuM9OKVRlQUEqqq4-7" value="" style="group" vertex="1" connectable="0" parent="1">
          <mxGeometry x="120" y="660" width="620" height="130" as="geometry" />
        </mxCell>
        <mxCell id="D7wewuM9OKVRlQUEqqq4-8" value="" style="rounded=0;whiteSpace=wrap;html=1;" vertex="1" parent="D7wewuM9OKVRlQUEqqq4-7">
          <mxGeometry width="620" height="130" as="geometry" />
        </mxCell>
        <mxCell id="D7wewuM9OKVRlQUEqqq4-9" value="&lt;span style=&quot;font-size: 24px;&quot;&gt;Scales and Arpeggios&lt;/span&gt;" style="rounded=0;whiteSpace=wrap;html=1;" vertex="1" parent="D7wewuM9OKVRlQUEqqq4-7">
          <mxGeometry x="20" y="27.5" width="200" height="75" as="geometry" />
        </mxCell>
        <mxCell id="D7wewuM9OKVRlQUEqqq4-14" value="IMAGE" style="rounded=0;whiteSpace=wrap;html=1;" vertex="1" parent="D7wewuM9OKVRlQUEqqq4-7">
          <mxGeometry x="280" y="20" width="320" height="90" as="geometry" />
        </mxCell>
        <mxCell id="D7wewuM9OKVRlQUEqqq4-10" value="&lt;span style=&quot;font-size: 48px;&quot;&gt;Guitar Warmup Coach&lt;/span&gt;" style="text;html=1;align=left;verticalAlign=middle;whiteSpace=wrap;rounded=0;" vertex="1" parent="1">
          <mxGeometry x="100" y="170" width="590" height="30" as="geometry" />
        </mxCell>
        <mxCell id="D7wewuM9OKVRlQUEqqq4-11" value="" style="rounded=0;whiteSpace=wrap;html=1;" vertex="1" parent="1">
          <mxGeometry x="80" y="230" width="700" height="40" as="geometry" />
        </mxCell>
      </root>
    </mxGraphModel>
  </diagram>
</mxfile>
